<svg width="20" height="20" viewBox="0 0 20 20" fill="none" xmlns="http://www.w3.org/2000/svg">
<path fill-rule="evenodd" clip-rule="evenodd" d="M2.98816 2.57165C3.30072 2.25909 3.72464 2.0835 4.16667 2.0835H7.08333C7.54357 2.0835 7.91667 2.45659 7.91667 2.91683V3.3335H12.0833V2.91683C12.0833 2.45659 12.4564 2.0835 12.9167 2.0835H15.8333C16.2754 2.0835 16.6993 2.25909 17.0118 2.57165C17.3244 2.88421 17.5 3.30814 17.5 3.75016V17.5002C17.5 17.9422 17.3244 18.3661 17.0118 18.6787C16.6993 18.9912 16.2754 19.1668 15.8333 19.1668H4.16667C3.72464 19.1668 3.30072 18.9912 2.98816 18.6787C2.67559 18.3661 2.5 17.9422 2.5 17.5002V3.75016C2.5 3.30813 2.6756 2.88421 2.98816 2.57165ZM13.75 3.75016V4.16683C13.75 4.62707 13.3769 5.00016 12.9167 5.00016H7.08333C6.6231 5.00016 6.25 4.62707 6.25 4.16683V3.75016H4.16667L4.16667 17.5002H15.8333V3.75016H13.75Z" fill="#B0B0B0"/>
<path fill-rule="evenodd" clip-rule="evenodd" d="M6.25 1.66683C6.25 1.20659 6.6231 0.833496 7.08333 0.833496H12.9167C13.3769 0.833496 13.75 1.20659 13.75 1.66683V4.16683C13.75 4.62707 13.3769 5.00016 12.9167 5.00016H7.08333C6.6231 5.00016 6.25 4.62707 6.25 4.16683V1.66683ZM7.91667 2.50016V3.3335H12.0833V2.50016H7.91667ZM11.8392 7.32754C12.1647 7.65295 12.1647 8.18059 11.8393 8.50605L9.92833 10.4172H12.085C12.4221 10.4172 12.726 10.6203 12.8549 10.9318C12.9839 11.2432 12.9125 11.6017 12.6741 11.84L9.33911 15.1733C9.01359 15.4987 8.48595 15.4985 8.1606 15.173C7.83524 14.8475 7.83537 14.3199 8.16089 13.9945L10.0724 12.0839H7.91667C7.57962 12.0839 7.27577 11.8809 7.14678 11.5695C7.01779 11.2581 7.08906 10.8997 7.32737 10.6614L10.6607 7.32761C10.9861 7.00215 11.5138 7.00212 11.8392 7.32754Z" fill="#B0B0B0"/>
</svg>
