<svg width="22" height="24" viewBox="0 0 22 24" fill="none" xmlns="http://www.w3.org/2000/svg">
<path d="M0.800033 5.77783V8.26672H20.7112V5.77783C20.7112 5.11774 20.4489 4.48468 19.9822 4.01792C19.5154 3.55116 18.8824 3.28894 18.2223 3.28894H3.28892C2.62883 3.28894 1.99577 3.55116 1.52901 4.01792C1.06225 4.48468 0.800033 5.11774 0.800033 5.77783Z" fill="white"/>
<path fill-rule="evenodd" clip-rule="evenodd" d="M5.77778 0C6.21961 0 6.57778 0.358172 6.57778 0.8V2.48889H14.9333V0.8C14.9333 0.358172 15.2915 0 15.7333 0C16.1752 0 16.5333 0.358172 16.5333 0.8V2.48889H18.2222C19.0945 2.48889 19.931 2.8354 20.5478 3.45218C21.1646 4.06897 21.5111 4.90551 21.5111 5.77778V8.26667C21.5111 8.37702 21.4888 8.48214 21.4484 8.57778C21.4888 8.67342 21.5111 8.77854 21.5111 8.88889V20.7111C21.5111 21.5834 21.1646 22.4199 20.5478 23.0367C19.931 23.6535 19.0945 24 18.2222 24H3.28889C2.41662 24 1.58008 23.6535 0.963293 23.0367C0.346507 22.4199 0 21.5834 0 20.7111V8.88889C0 8.77854 0.0223415 8.67342 0.062748 8.57778C0.0223415 8.48214 0 8.37702 0 8.26667V5.77778C0 4.90551 0.346507 4.06897 0.963293 3.45218C1.58008 2.8354 2.41662 2.48889 3.28889 2.48889H4.97778V0.8C4.97778 0.358172 5.33595 0 5.77778 0ZM1.6 7.46667V5.77778C1.6 5.32986 1.77794 4.90028 2.09466 4.58355C2.41139 4.26683 2.84097 4.08889 3.28889 4.08889H18.2222C18.6701 4.08889 19.0997 4.26683 19.4165 4.58355C19.7332 4.90028 19.9111 5.32986 19.9111 5.77778V7.46667H1.6ZM19.9111 9.06667H1.6V20.7111C1.6 21.159 1.77794 21.5886 2.09466 21.9053C2.41139 22.2221 2.84097 22.4 3.28889 22.4H18.2222C18.6701 22.4 19.0997 22.2221 19.4165 21.9053C19.7332 21.5886 19.9111 21.159 19.9111 20.7111V9.06667Z" fill="white"/>
</svg>
