<svg width="30" height="30" viewBox="0 0 30 30" fill="none" xmlns="http://www.w3.org/2000/svg">
<path fill-rule="evenodd" clip-rule="evenodd" d="M13.9483 4.16131C14.2754 3.99994 14.6353 3.91602 15 3.91602C15.3647 3.91602 15.7246 3.99994 16.0517 4.16131L26.2866 9.21286C26.2872 9.21317 26.2878 9.21348 26.2885 9.21379C26.8377 9.48259 27.301 9.89956 27.6259 10.4176C27.9512 10.9363 28.1249 11.5357 28.1273 12.1479L28.1273 12.1517V22.9687C28.1273 24.7921 26.6333 26.2499 24.8156 26.2499H5.18672C3.36903 26.2499 1.875 24.7921 1.875 22.9687V12.1517L1.87501 12.1484C1.87715 11.5365 2.05035 10.9374 2.37505 10.4187C2.69949 9.9005 3.16226 9.48323 3.71117 9.21397C3.71161 9.21375 3.71206 9.21354 3.71251 9.21332L13.9483 4.16131ZM14.7779 5.84278C14.7779 5.8428 14.7779 5.84282 14.7778 5.84283L4.53993 10.8959L4.53749 10.8971C4.302 11.0125 4.10346 11.1914 3.9643 11.4137C3.8254 11.6355 3.75118 11.8918 3.75 12.1535V22.9687C3.75 23.7339 4.38175 24.3749 5.18672 24.3749H24.8156C25.6206 24.3749 26.2523 23.7339 26.2523 22.9687V12.1538C26.251 11.892 26.1766 11.6357 26.0374 11.4139C25.898 11.1916 25.6992 11.0127 25.4634 10.8975L25.4601 10.8959L15.2222 5.84283C15.2221 5.8428 15.222 5.84278 15.222 5.84275C15.1529 5.80872 15.077 5.79102 15 5.79102C14.923 5.79102 14.847 5.80873 14.7779 5.84278Z" fill="white"/>
<path fill-rule="evenodd" clip-rule="evenodd" d="M2.84574 10.685C3.15783 10.2718 3.74574 10.1899 4.15888 10.502L11.7386 16.2277L13.4051 14.9315C13.4051 14.9315 13.4051 14.9315 13.4052 14.9315C13.8166 14.6115 14.3229 14.4378 14.8441 14.4378C15.3653 14.4378 15.8716 14.6115 16.2831 14.9315L17.9589 16.235L25.5278 10.5027C25.9405 10.1901 26.5286 10.2713 26.8412 10.684C27.1538 11.0968 27.0726 11.6848 26.6598 11.9974L19.491 17.4267L23.8569 20.8225C24.2656 21.1404 24.3392 21.7294 24.0213 22.1381C23.7034 22.5468 23.1144 22.6204 22.7057 22.3026L15.1319 16.4115C15.0496 16.3475 14.9483 16.3128 14.8441 16.3128C14.7399 16.3128 14.6386 16.3475 14.5563 16.4115L14.5563 16.4116L6.98186 22.3026C6.57315 22.6205 5.98415 22.5468 5.66628 22.1381C5.3484 21.7294 5.42204 21.1404 5.83075 20.8225L10.2059 17.4197L3.02872 11.9981C2.61558 11.686 2.53366 11.0981 2.84574 10.685Z" fill="white"/>
</svg>
