<svg width="24" height="24" viewBox="0 0 24 24" fill="none" xmlns="http://www.w3.org/2000/svg">
<path d="M22.3176 5.27979H1.69007C1.02671 5.27979 0.483826 5.88315 0.483826 6.47979C0.483826 7.07643 1.02671 7.67931 1.69007 7.67931H1.98143V10.0793H22.0555V7.67931H22.3176C22.9814 7.67931 23.5238 7.07643 23.5238 6.47979C23.5238 5.88315 22.9814 5.27979 22.3176 5.27979ZM12.0038 8.88939C11.6707 8.88939 11.4009 8.61147 11.4009 8.26923C11.4009 7.92699 11.6707 7.64907 12.0038 7.64907C12.3374 7.64907 12.6067 7.92699 12.6067 8.26923C12.6067 8.61147 12.3374 8.88939 12.0038 8.88939ZM1.98143 14.8788H22.0555V11.0398H1.98143V14.8788ZM12.0038 12.2993C12.3374 12.2993 12.6067 12.5767 12.6067 12.919C12.6067 13.2617 12.3374 13.5391 12.0038 13.5391C11.6707 13.5391 11.4009 13.2617 11.4009 12.919C11.4005 12.5767 11.6707 12.2993 12.0038 12.2993ZM1.98143 18.1894V20.9801C1.98143 21.3209 2.02415 21.6003 2.35583 21.6003H4.76735C5.09903 21.6003 5.24927 21.3209 5.24927 20.9801V19.1993H18.7877V20.9801C18.7877 21.3209 18.9086 21.6003 19.2398 21.6003H21.6518C21.9825 21.6003 22.055 21.3209 22.055 20.9801V15.8398H1.98143V18.1894ZM12.0038 16.9495C12.3374 16.9495 12.6067 17.2275 12.6067 17.5692C12.6067 17.9124 12.3374 18.1889 12.0038 18.1889C11.6707 18.1889 11.4009 17.9124 11.4009 17.5692C11.4005 17.2279 11.6707 16.9495 12.0038 16.9495Z" fill="#00FFF5"/>
</svg>
