<svg width="20" height="20" viewBox="0 0 20 20" fill="none" xmlns="http://www.w3.org/2000/svg">
<path d="M2.50016 15.8333V4.74993C2.50011 4.57887 2.55271 4.41194 2.6508 4.2718C2.7489 4.13166 2.88775 4.0251 3.0485 3.9666L11.1077 1.0366C11.1706 1.01369 11.2382 1.00629 11.3046 1.01504C11.371 1.02379 11.4343 1.04843 11.4892 1.08687C11.5441 1.1253 11.5889 1.1764 11.6198 1.23583C11.6507 1.29526 11.6669 1.36127 11.6668 1.42827V5.55577L16.9302 7.30993C17.0962 7.36522 17.2406 7.47136 17.3429 7.61331C17.4452 7.75525 17.5002 7.9258 17.5002 8.10077V15.8333H19.1668V17.4999H0.833496V15.8333H2.50016ZM4.16683 15.8333H10.0002V3.21243L4.16683 5.3341V15.8333ZM15.8335 15.8333V8.7016L11.6668 7.31243V15.8333H15.8335Z" fill="white"/>
</svg>
