<svg width="24" height="24" viewBox="0 0 24 24" fill="none" xmlns="http://www.w3.org/2000/svg">
<path d="M12.0534 1.56006C6.17339 1.56006 1.38672 5.74673 1.38672 10.8934C1.38672 16.0401 6.17339 20.2267 12.0534 20.2267C13.1625 20.2287 14.2664 20.0761 15.3334 19.7734L19.0201 22.1201C19.1686 22.2153 19.3489 22.2477 19.5214 22.2102C19.6938 22.1727 19.8444 22.0684 19.9401 21.9201C20.0094 21.8128 20.0464 21.6878 20.0467 21.5601V17.0734C20.8809 16.2732 21.5465 15.3142 22.0045 14.2528C22.4625 13.1915 22.7035 12.0493 22.7134 10.8934C22.7201 5.74673 17.9334 1.56006 12.0534 1.56006ZM18.9134 16.3001C18.8464 16.3622 18.7928 16.4375 18.7561 16.5212C18.7194 16.6049 18.7003 16.6953 18.7001 16.7867V20.3467L15.7801 18.4867C15.6986 18.4352 15.607 18.402 15.5114 18.3894C15.4159 18.3767 15.3188 18.3849 15.2267 18.4134C14.1992 18.7325 13.1293 18.8944 12.0534 18.8934C6.90672 18.8934 2.72005 15.3067 2.72005 10.8934C2.72005 6.48006 6.90672 2.89339 12.0534 2.89339C17.2001 2.89339 21.3867 6.48006 21.3867 10.8934C21.3707 11.9166 21.1426 12.9254 20.7169 13.856C20.2912 14.7867 19.6771 15.6189 18.9134 16.3001Z" fill="#00FFF5"/>
<path d="M20.7334 10.5467L20.6667 10.4467L19.0001 8.96003C18.7855 8.76477 18.5339 8.61459 18.2602 8.5184C17.9865 8.4222 17.6963 8.38195 17.4067 8.40003L13.8201 8.6267L11.4267 6.6267C11.3296 6.54507 11.2069 6.50023 11.0801 6.50003H9.04006C8.94649 6.49898 8.85436 6.52319 8.7734 6.57013C8.69244 6.61706 8.62565 6.68497 8.58006 6.7667C8.53249 6.8463 8.50737 6.9373 8.50737 7.03003C8.50737 7.12277 8.53249 7.21377 8.58006 7.29337L9.48673 8.92003L6.34673 9.11337L7.22006 10.1267L17.4801 9.46003C17.628 9.45057 17.7762 9.47108 17.916 9.52034C18.0558 9.5696 18.1841 9.6466 18.2934 9.7467L19.8667 11.1667C19.8718 11.1818 19.8718 11.1982 19.8667 11.2134C19.8667 11.2534 19.8067 11.2467 19.8001 11.2534H14.5467L14.3134 11.5L10.8534 15.1867H9.76006L11.5801 11.2534H5.6934L4.7534 9.44003L4.34006 8.6667C4.26181 8.57039 4.15242 8.50437 4.03073 8.48004C3.90904 8.4557 3.78268 8.47456 3.6734 8.53337C3.549 8.60345 3.45741 8.71994 3.41868 8.85737C3.37995 8.9948 3.39723 9.14197 3.46673 9.2667L4.80006 11.8934C4.86867 12.0248 4.97216 12.1347 5.09918 12.2112C5.2262 12.2876 5.37182 12.3276 5.52006 12.3267H9.90006L8.60673 15.1134C8.55033 15.2368 8.52624 15.3725 8.53674 15.5078C8.54723 15.6431 8.59197 15.7735 8.66673 15.8867C8.73878 15.9988 8.83725 16.0914 8.95349 16.1565C9.06974 16.2216 9.2002 16.2572 9.3334 16.26H10.9534C11.064 16.2608 11.1736 16.238 11.2747 16.1932C11.3759 16.1483 11.4663 16.0825 11.5401 16L14.9934 12.3267H19.7667C19.9758 12.3324 20.1822 12.2783 20.3617 12.1709C20.5412 12.0634 20.6863 11.907 20.7801 11.72C20.8774 11.538 20.9244 11.3333 20.9162 11.127C20.908 10.9208 20.8449 10.7204 20.7334 10.5467ZM9.94673 7.54003H10.8867L12.2801 8.72003L10.6667 8.82003L9.94673 7.54003Z" fill="#00FFF5"/>
</svg>
