<svg width="15" height="16" viewBox="0 0 15 16" fill="none" xmlns="http://www.w3.org/2000/svg">
<path fill-rule="evenodd" clip-rule="evenodd" d="M3.85185 0C4.1464 0 4.38519 0.238781 4.38519 0.533333V1.65926H9.95556V0.533333C9.95556 0.238781 10.1943 0 10.4889 0C10.7834 0 11.0222 0.238781 11.0222 0.533333V1.65926H12.1481C12.7297 1.65926 13.2874 1.89026 13.6985 2.30145C14.1097 2.71265 14.3407 3.27034 14.3407 3.85185V5.51111C14.3407 5.58468 14.3258 5.65476 14.2989 5.71852C14.3258 5.78228 14.3407 5.85236 14.3407 5.92593V13.8074C14.3407 14.3889 14.1097 14.9466 13.6985 15.3578C13.2874 15.769 12.7297 16 12.1481 16H2.19259C1.61108 16 1.05339 15.769 0.642195 15.3578C0.231005 14.9466 0 14.3889 0 13.8074V5.92593C0 5.85236 0.0148944 5.78228 0.041832 5.71852C0.0148944 5.65476 0 5.58468 0 5.51111V3.85185C0 3.27034 0.231005 2.71265 0.642195 2.30145C1.05339 1.89026 1.61108 1.65926 2.19259 1.65926H3.31852V0.533333C3.31852 0.238781 3.5573 0 3.85185 0ZM1.06667 4.97778V3.85185C1.06667 3.55324 1.18529 3.26685 1.39644 3.0557C1.60759 2.84455 1.89398 2.72593 2.19259 2.72593H12.1481C12.4468 2.72593 12.7331 2.84455 12.9443 3.0557C13.1555 3.26685 13.2741 3.55324 13.2741 3.85185V4.97778H1.06667ZM13.2741 6.04445H1.06667V13.8074C1.06667 14.106 1.18529 14.3924 1.39644 14.6036C1.60759 14.8147 1.89398 14.9333 2.19259 14.9333H12.1481C12.4468 14.9333 12.7331 14.8147 12.9443 14.6036C13.1555 14.3924 13.2741 14.106 13.2741 13.8074V6.04445Z" fill="#B5B5B5"/>
</svg>
