<svg width="34" height="34" viewBox="0 0 34 34" fill="none" xmlns="http://www.w3.org/2000/svg">
<path d="M9.20817 28.3334C7.05484 28.3334 5.21789 27.592 3.69734 26.1092C2.17678 24.617 1.4165 22.799 1.4165 20.6551C1.4165 18.8134 1.969 17.1701 3.074 15.7251C4.18845 14.2801 5.64289 13.3592 7.43734 12.9626C8.03234 10.7904 9.21289 9.03369 10.979 7.69258C12.7546 6.34203 14.7615 5.66675 16.9998 5.66675C19.7671 5.66675 22.1093 6.63008 24.0265 8.55675C25.9532 10.474 26.9165 12.8162 26.9165 15.5834C28.5504 15.7723 29.9009 16.4806 30.9682 17.7084C32.0448 18.9173 32.5832 20.334 32.5832 21.9584C32.5832 23.734 31.9646 25.2404 30.7273 26.4776C29.4901 27.7148 27.9837 28.3334 26.2082 28.3334H18.4165C17.6421 28.3334 16.9762 28.0548 16.419 27.4976C15.8618 26.9498 15.5832 26.284 15.5832 25.5001V18.2042L13.3165 20.4001L11.3332 18.4167L16.9998 12.7501L22.6665 18.4167L20.6832 20.4001L18.4165 18.2042V25.5001H26.2082C27.1998 25.5001 28.0357 25.1554 28.7157 24.4659C29.4051 23.7859 29.7498 22.9501 29.7498 21.9584C29.7498 20.9667 29.4051 20.1309 28.7157 19.4509C28.0357 18.7615 27.1998 18.4167 26.2082 18.4167H24.0832V15.5834C24.0832 13.6284 23.3937 11.9567 22.0148 10.5684C20.6359 9.18953 18.9643 8.50008 16.9998 8.50008C15.0448 8.50008 13.3732 9.18953 11.9848 10.5684C10.6059 11.9567 9.9165 13.6284 9.9165 15.5834H9.20817C7.83873 15.5834 6.67234 16.0698 5.709 17.0426C4.73623 18.0059 4.24984 19.1723 4.24984 20.5417C4.24984 21.9112 4.73623 23.0917 5.709 24.0834C6.67234 25.0279 7.83873 25.5001 9.20817 25.5001H12.7498V28.3334" fill="#616161"/>
</svg>
