<svg width="24" height="24" viewBox="0 0 24 24" fill="none" xmlns="http://www.w3.org/2000/svg">
<path d="M10.5895 13.41C10.9995 13.8 10.9995 14.44 10.5895 14.83C10.1995 15.22 9.55953 15.22 9.16953 14.83C8.23291 13.892 7.70684 12.6206 7.70684 11.295C7.70684 9.96944 8.23291 8.69804 9.16953 7.76002L12.7095 4.22002C13.6476 3.28339 14.919 2.75732 16.2445 2.75732C17.5701 2.75732 18.8415 3.28339 19.7795 4.22002C20.7161 5.15804 21.2422 6.42944 21.2422 7.75502C21.2422 9.08059 20.7161 10.352 19.7795 11.29L18.2895 12.78C18.2995 11.96 18.1695 11.14 17.8895 10.36L18.3595 9.88002C18.6399 9.6027 18.8624 9.27254 19.0143 8.90865C19.1662 8.54475 19.2444 8.15434 19.2444 7.76002C19.2444 7.36569 19.1662 6.97528 19.0143 6.61139C18.8624 6.24749 18.6399 5.91733 18.3595 5.64002C18.0822 5.35968 17.7521 5.13712 17.3882 4.98524C17.0243 4.83335 16.6339 4.75514 16.2395 4.75514C15.8452 4.75514 15.4548 4.83335 15.0909 4.98524C14.727 5.13712 14.3968 5.35968 14.1195 5.64002L10.5895 9.17002C10.3092 9.44733 10.0866 9.77749 9.93475 10.1414C9.78286 10.5053 9.70465 10.8957 9.70465 11.29C9.70465 11.6843 9.78286 12.0747 9.93475 12.4386C10.0866 12.8025 10.3092 13.1327 10.5895 13.41ZM13.4095 9.17002C13.7995 8.78002 14.4395 8.78002 14.8295 9.17002C15.7661 10.108 16.2922 11.3794 16.2922 12.705C16.2922 14.0306 15.7661 15.302 14.8295 16.24L11.2895 19.78C10.3515 20.7166 9.0801 21.2427 7.75453 21.2427C6.42895 21.2427 5.15756 20.7166 4.21953 19.78C3.28291 18.842 2.75684 17.5706 2.75684 16.245C2.75684 14.9194 3.28291 13.648 4.21953 12.71L5.70953 11.22C5.69953 12.04 5.82953 12.86 6.10953 13.65L5.63953 14.12C5.35919 14.3973 5.13664 14.7275 4.98475 15.0914C4.83286 15.4553 4.75465 15.8457 4.75465 16.24C4.75465 16.6343 4.83286 17.0247 4.98475 17.3886C5.13664 17.7525 5.35919 18.0827 5.63953 18.36C5.91684 18.6404 6.247 18.8629 6.6109 19.0148C6.97479 19.1667 7.3652 19.2449 7.75953 19.2449C8.15385 19.2449 8.54426 19.1667 8.90816 19.0148C9.27206 18.8629 9.60221 18.6404 9.87953 18.36L13.4095 14.83C13.6899 14.5527 13.9124 14.2225 14.0643 13.8586C14.2162 13.4947 14.2944 13.1043 14.2944 12.71C14.2944 12.3157 14.2162 11.9253 14.0643 11.5614C13.9124 11.1975 13.6899 10.8673 13.4095 10.59C13.3124 10.499 13.235 10.389 13.1821 10.2669C13.1291 10.1448 13.1018 10.0131 13.1018 9.88002C13.1018 9.74692 13.1291 9.61523 13.1821 9.49311C13.235 9.37099 13.3124 9.26102 13.4095 9.17002Z" fill="#A0A0A0"/>
</svg>
