<svg width="20" height="20" viewBox="0 0 20 20" fill="none" xmlns="http://www.w3.org/2000/svg">
<path d="M18.598 4.3999H1.4084C0.855598 4.3999 0.403198 4.9027 0.403198 5.3999C0.403198 5.8971 0.855598 6.3995 1.4084 6.3995H1.6512V8.3995H18.3796V6.3995H18.598C19.1512 6.3995 19.6032 5.8971 19.6032 5.3999C19.6032 4.9027 19.1512 4.3999 18.598 4.3999ZM10.0032 7.4079C9.7256 7.4079 9.5008 7.1763 9.5008 6.8911C9.5008 6.6059 9.7256 6.3743 10.0032 6.3743C10.2812 6.3743 10.5056 6.6059 10.5056 6.8911C10.5056 7.1763 10.2812 7.4079 10.0032 7.4079ZM1.6512 12.3991H18.3796V9.1999H1.6512V12.3991ZM10.0032 10.2495C10.2812 10.2495 10.5056 10.4807 10.5056 10.7659C10.5056 11.0515 10.2812 11.2827 10.0032 11.2827C9.7256 11.2827 9.5008 11.0515 9.5008 10.7659C9.5004 10.4807 9.7256 10.2495 10.0032 10.2495ZM1.6512 15.1579V17.4835C1.6512 17.7675 1.6868 18.0003 1.9632 18.0003H3.9728C4.2492 18.0003 4.3744 17.7675 4.3744 17.4835V15.9995H15.6564V17.4835C15.6564 17.7675 15.7572 18.0003 16.0332 18.0003H18.0432C18.3188 18.0003 18.3792 17.7675 18.3792 17.4835V13.1999H1.6512V15.1579ZM10.0032 14.1247C10.2812 14.1247 10.5056 14.3563 10.5056 14.6411C10.5056 14.9271 10.2812 15.1575 10.0032 15.1575C9.7256 15.1575 9.5008 14.9271 9.5008 14.6411C9.5004 14.3567 9.7256 14.1247 10.0032 14.1247Z" fill="white"/>
</svg>
