<svg width="24" height="24" viewBox="0 0 24 24" fill="none" xmlns="http://www.w3.org/2000/svg">
<path d="M18 6C17.45 6 16.979 5.804 16.587 5.412C16.1957 5.02067 16 4.55 16 4C16 3.45 16.1957 2.979 16.587 2.587C16.979 2.19567 17.45 2 18 2C18.55 2 19.021 2.19567 19.413 2.587C19.8043 2.979 20 3.45 20 4C20 4.55 19.8043 5.02067 19.413 5.412C19.021 5.804 18.55 6 18 6ZM17 10V9.425C17 9.00833 16.9167 8.61667 16.75 8.25C16.5833 7.88333 16.3583 7.55833 16.075 7.275C16.375 7.19167 16.6877 7.125 17.013 7.075C17.3377 7.025 17.6667 7 18 7C18.5 7 18.9793 7.05 19.438 7.15C19.896 7.25 20.3417 7.39167 20.775 7.575C21.1583 7.74167 21.4583 7.99167 21.675 8.325C21.8917 8.65833 22 9.025 22 9.425V10H17ZM6 6C5.45 6 4.97933 5.804 4.588 5.412C4.196 5.02067 4 4.55 4 4C4 3.45 4.196 2.979 4.588 2.587C4.97933 2.19567 5.45 2 6 2C6.55 2 7.02067 2.19567 7.412 2.587C7.804 2.979 8 3.45 8 4C8 4.55 7.804 5.02067 7.412 5.412C7.02067 5.804 6.55 6 6 6ZM2 10V9.425C2 9.025 2.10833 8.65833 2.325 8.325C2.54167 7.99167 2.84167 7.74167 3.225 7.575C3.65833 7.39167 4.104 7.25 4.562 7.15C5.02067 7.05 5.5 7 6 7C6.33333 7 6.66267 7.025 6.988 7.075C7.31267 7.125 7.625 7.19167 7.925 7.275C7.64167 7.55833 7.41667 7.88333 7.25 8.25C7.08333 8.61667 7 9.00833 7 9.425V10H2ZM12 6C11.45 6 10.9793 5.804 10.588 5.412C10.196 5.02067 10 4.55 10 4C10 3.45 10.196 2.979 10.588 2.587C10.9793 2.19567 11.45 2 12 2C12.55 2 13.021 2.19567 13.413 2.587C13.8043 2.979 14 3.45 14 4C14 4.55 13.8043 5.02067 13.413 5.412C13.021 5.804 12.55 6 12 6ZM8 10V9.425C8 9.025 8.10833 8.65833 8.325 8.325C8.54167 7.99167 8.84167 7.74167 9.225 7.575C9.65833 7.39167 10.104 7.25 10.562 7.15C11.0207 7.05 11.5 7 12 7C12.5 7 12.9793 7.05 13.438 7.15C13.896 7.25 14.3417 7.39167 14.775 7.575C15.1583 7.74167 15.4583 7.99167 15.675 8.325C15.8917 8.65833 16 9.025 16 9.425V10H8ZM17 18C16.45 18 15.9793 17.8043 15.588 17.413C15.196 17.021 15 16.55 15 16C15 15.45 15.196 14.979 15.588 14.587C15.9793 14.1957 16.45 14 17 14C17.55 14 18.021 14.1957 18.413 14.587C18.8043 14.979 19 15.45 19 16C19 16.55 18.8043 17.021 18.413 17.413C18.021 17.8043 17.55 18 17 18ZM13 22V21.425C13 21.025 13.1083 20.6583 13.325 20.325C13.5417 19.9917 13.8417 19.7417 14.225 19.575C14.6583 19.3917 15.104 19.25 15.562 19.15C16.0207 19.05 16.5 19 17 19C17.5 19 17.9793 19.05 18.438 19.15C18.896 19.25 19.3417 19.3917 19.775 19.575C20.1583 19.7417 20.4583 19.9917 20.675 20.325C20.8917 20.6583 21 21.025 21 21.425V22H13ZM7 18C6.45 18 5.97933 17.8043 5.588 17.413C5.196 17.021 5 16.55 5 16C5 15.45 5.196 14.979 5.588 14.587C5.97933 14.1957 6.45 14 7 14C7.55 14 8.02067 14.1957 8.412 14.587C8.804 14.979 9 15.45 9 16C9 16.55 8.804 17.021 8.412 17.413C8.02067 17.8043 7.55 18 7 18ZM3 22V21.425C3 21.025 3.10833 20.6583 3.325 20.325C3.54167 19.9917 3.84167 19.7417 4.225 19.575C4.65833 19.3917 5.104 19.25 5.562 19.15C6.02067 19.05 6.5 19 7 19C7.5 19 7.97933 19.05 8.438 19.15C8.896 19.25 9.34167 19.3917 9.775 19.575C10.1583 19.7417 10.4583 19.9917 10.675 20.325C10.8917 20.6583 11 21.025 11 21.425V22H3ZM12 15.575C11.8667 15.575 11.7417 15.554 11.625 15.512C11.5083 15.4707 11.4 15.4 11.3 15.3L9.525 13.525C9.375 13.375 9.3 13.2 9.3 13C9.3 12.8 9.375 12.625 9.525 12.475C9.675 12.325 9.85 12.254 10.05 12.262C10.25 12.2707 10.425 12.3417 10.575 12.475L11.25 13.125V11.75C11.25 11.5333 11.321 11.354 11.463 11.212C11.6043 11.0707 11.7833 11 12 11C12.2167 11 12.396 11.0707 12.538 11.212C12.6793 11.354 12.75 11.5333 12.75 11.75V13.125L13.425 12.45C13.575 12.3167 13.75 12.25 13.95 12.25C14.15 12.25 14.325 12.325 14.475 12.475C14.625 12.625 14.7 12.8 14.7 13C14.7 13.2 14.625 13.375 14.475 13.525L12.7 15.3C12.6 15.4 12.4917 15.4707 12.375 15.512C12.2583 15.554 12.1333 15.575 12 15.575Z" fill="white"/>
</svg>
