<svg width="28" height="28" viewBox="0 0 28 28" fill="none" xmlns="http://www.w3.org/2000/svg">
<path d="M24.7735 6.16875L14.2735 2.66875C14.0953 2.61392 13.9048 2.61392 13.7266 2.66875L3.23752 6.16875H3.21565L3.10627 6.22343H3.09534L2.98596 6.28906C2.98596 6.3 2.97502 6.3 2.96409 6.31093L2.87659 6.3875L2.80002 6.475C2.80002 6.48593 2.78909 6.48593 2.78909 6.49687L2.72346 6.59531C2.72346 6.60625 2.72346 6.60625 2.71252 6.61718L2.66877 6.71562L2.63596 6.83593V6.86875C2.62517 6.9116 2.62148 6.95594 2.62502 7V15.75C2.62502 15.9821 2.71721 16.2046 2.8813 16.3687C3.0454 16.5328 3.26796 16.625 3.50002 16.625C3.73209 16.625 3.95465 16.5328 4.11874 16.3687C4.28284 16.2046 4.37502 15.9821 4.37502 15.75V8.21406L8.05002 9.43906C7.3596 10.5442 6.99561 11.8219 7.00002 13.125C7.00043 14.3101 7.30169 15.4757 7.8756 16.5125C8.4495 17.5494 9.27725 18.4235 10.2813 19.0531C8.19483 19.8424 6.41362 21.2751 5.19533 23.1437C5.07116 23.3401 5.02909 23.5774 5.07819 23.8045C5.12729 24.0316 5.26363 24.2303 5.45784 24.3578C5.55314 24.421 5.66003 24.4646 5.77231 24.4861C5.88459 24.5076 6.00003 24.5067 6.11193 24.4833C6.22384 24.4599 6.32999 24.4145 6.42423 24.3498C6.51848 24.2851 6.59894 24.2023 6.66096 24.1062C7.45516 22.8829 8.54258 21.8775 9.82432 21.1814C11.1061 20.4854 12.5415 20.1208 14 20.1208C15.4586 20.1208 16.894 20.4854 18.1757 21.1814C19.4575 21.8775 20.5449 22.8829 21.3391 24.1062C21.419 24.2275 21.5278 24.327 21.6557 24.3958C21.7836 24.4645 21.9267 24.5003 22.0719 24.5C22.2395 24.5018 22.4037 24.4521 22.5422 24.3578C22.7364 24.2303 22.8728 24.0316 22.9219 23.8045C22.971 23.5774 22.9289 23.3401 22.8047 23.1437C21.5864 21.2751 19.8052 19.8424 17.7188 19.0531C18.7228 18.4235 19.5505 17.5494 20.1244 16.5125C20.6984 15.4757 20.9996 14.3101 21 13.125C21.0044 11.8219 20.6404 10.5442 19.95 9.43906L24.7735 7.83125C24.9485 7.77371 25.1009 7.66237 25.209 7.5131C25.3171 7.36384 25.3752 7.18427 25.3752 7C25.3752 6.81572 25.3171 6.63615 25.209 6.48689C25.1009 6.33762 24.9485 6.22628 24.7735 6.16875ZM19.25 13.125C19.25 14.5174 18.6969 15.8527 17.7123 16.8373C16.7278 17.8219 15.3924 18.375 14 18.375C12.6076 18.375 11.2723 17.8219 10.2877 16.8373C9.30315 15.8527 8.75002 14.5174 8.75002 13.125C8.75213 12.0047 9.10814 10.9137 9.76721 10.0078L13.7266 11.3312C13.9042 11.3897 14.0958 11.3897 14.2735 11.3312L18.2328 10.0078C18.8919 10.9137 19.2479 12.0047 19.25 13.125ZM18.2328 8.17031H18.2219L14 9.58125L9.77815 8.17031H9.76721L6.26721 7L14 4.41875L21.7328 7L18.2328 8.17031Z" fill="#B0B0B0"/>
</svg>
