<svg width="120" height="39" viewBox="0 0 120 39" fill="none" xmlns="http://www.w3.org/2000/svg">
<rect x="0.5" y="0.5" width="119" height="38" rx="4.5" fill="black" stroke="#00FFF5"/>
<path d="M33.824 26V14.8H38.384C39.5787 14.8 40.624 15.04 41.52 15.52C42.4267 15.9893 43.1307 16.6453 43.632 17.488C44.1333 18.3307 44.384 19.3013 44.384 20.4C44.384 21.4987 44.1333 22.4693 43.632 23.312C43.1307 24.1547 42.4267 24.816 41.52 25.296C40.624 25.7653 39.5787 26 38.384 26H33.824ZM35.008 24.976H38.32C39.312 24.976 40.1707 24.784 40.896 24.4C41.632 24.0053 42.2027 23.4667 42.608 22.784C43.0133 22.0907 43.216 21.296 43.216 20.4C43.216 19.4933 43.0133 18.6987 42.608 18.016C42.2027 17.3333 41.632 16.8 40.896 16.416C40.1707 16.0213 39.312 15.824 38.32 15.824H35.008V24.976ZM50.3708 26.08C49.4961 26.08 48.7281 25.8987 48.0668 25.536C47.4054 25.1627 46.8881 24.656 46.5148 24.016C46.1414 23.3653 45.9548 22.624 45.9548 21.792C45.9548 20.96 46.1308 20.224 46.4828 19.584C46.8454 18.944 47.3361 18.4427 47.9548 18.08C48.5841 17.7067 49.2881 17.52 50.0668 17.52C50.8561 17.52 51.5548 17.7013 52.1628 18.064C52.7814 18.416 53.2668 18.9173 53.6188 19.568C53.9708 20.208 54.1468 20.9493 54.1468 21.792C54.1468 21.8453 54.1414 21.904 54.1308 21.968C54.1308 22.0213 54.1308 22.08 54.1308 22.144H46.8188V21.296H53.5228L53.0748 21.632C53.0748 21.024 52.9414 20.4853 52.6748 20.016C52.4188 19.536 52.0668 19.1627 51.6188 18.896C51.1708 18.6293 50.6534 18.496 50.0668 18.496C49.4908 18.496 48.9734 18.6293 48.5148 18.896C48.0561 19.1627 47.6988 19.536 47.4428 20.016C47.1868 20.496 47.0588 21.0453 47.0588 21.664V21.84C47.0588 22.48 47.1974 23.0453 47.4748 23.536C47.7628 24.016 48.1574 24.3947 48.6588 24.672C49.1708 24.9387 49.7521 25.072 50.4028 25.072C50.9148 25.072 51.3894 24.9813 51.8268 24.8C52.2748 24.6187 52.6588 24.3413 52.9788 23.968L53.6188 24.704C53.2454 25.152 52.7761 25.4933 52.2108 25.728C51.6561 25.9627 51.0428 26.08 50.3708 26.08ZM59.115 26.08C58.3257 26.08 57.7177 25.8667 57.291 25.44C56.8643 25.0133 56.651 24.4107 56.651 23.632V15.744H57.787V23.568C57.787 24.0587 57.9097 24.4373 58.155 24.704C58.411 24.9707 58.7737 25.104 59.243 25.104C59.7443 25.104 60.1603 24.96 60.491 24.672L60.891 25.488C60.667 25.6907 60.395 25.84 60.075 25.936C59.7657 26.032 59.4457 26.08 59.115 26.08ZM55.147 18.544V17.6H60.347V18.544H55.147ZM68.223 26V24.144L68.175 23.84V20.736C68.175 20.0213 67.9723 19.472 67.567 19.088C67.1723 18.704 66.5803 18.512 65.791 18.512C65.247 18.512 64.7297 18.6027 64.239 18.784C63.7483 18.9653 63.3323 19.2053 62.991 19.504L62.479 18.656C62.9057 18.2933 63.4177 18.016 64.015 17.824C64.6123 17.6213 65.2417 17.52 65.903 17.52C66.991 17.52 67.8283 17.792 68.415 18.336C69.0123 18.8693 69.311 19.6853 69.311 20.784V26H68.223ZM65.327 26.08C64.6977 26.08 64.1483 25.9787 63.679 25.776C63.2203 25.5627 62.8683 25.2747 62.623 24.912C62.3777 24.5387 62.255 24.112 62.255 23.632C62.255 23.1947 62.3563 22.8 62.559 22.448C62.7723 22.0853 63.1137 21.7973 63.583 21.584C64.063 21.36 64.703 21.248 65.503 21.248H68.399V22.096H65.535C64.7243 22.096 64.159 22.24 63.839 22.528C63.5297 22.816 63.375 23.1733 63.375 23.6C63.375 24.08 63.5617 24.464 63.935 24.752C64.3083 25.04 64.831 25.184 65.503 25.184C66.143 25.184 66.6923 25.04 67.151 24.752C67.6203 24.4533 67.9617 24.0267 68.175 23.472L68.431 24.256C68.2177 24.8107 67.8443 25.2533 67.311 25.584C66.7883 25.9147 66.127 26.08 65.327 26.08ZM72.3965 26V17.6H73.5325V26H72.3965ZM72.9725 15.744C72.7378 15.744 72.5405 15.664 72.3805 15.504C72.2205 15.344 72.1405 15.152 72.1405 14.928C72.1405 14.704 72.2205 14.5173 72.3805 14.368C72.5405 14.208 72.7378 14.128 72.9725 14.128C73.2072 14.128 73.4045 14.2027 73.5645 14.352C73.7245 14.5013 73.8045 14.688 73.8045 14.912C73.8045 15.1467 73.7245 15.344 73.5645 15.504C73.4152 15.664 73.2178 15.744 72.9725 15.744ZM76.6934 26V14.128H77.8294V26H76.6934ZM83.2463 26.08C82.5529 26.08 81.8969 25.984 81.2783 25.792C80.6596 25.5893 80.1743 25.3387 79.8223 25.04L80.3343 24.144C80.6756 24.4 81.1129 24.624 81.6463 24.816C82.1796 24.9973 82.7396 25.088 83.3263 25.088C84.1263 25.088 84.7023 24.9653 85.0543 24.72C85.4063 24.464 85.5823 24.128 85.5823 23.712C85.5823 23.4027 85.4809 23.1627 85.2783 22.992C85.0863 22.8107 84.8303 22.6773 84.5103 22.592C84.1903 22.496 83.8329 22.416 83.4383 22.352C83.0436 22.288 82.6489 22.2133 82.2543 22.128C81.8703 22.0427 81.5183 21.92 81.1983 21.76C80.8783 21.5893 80.6169 21.36 80.4143 21.072C80.2223 20.784 80.1263 20.4 80.1263 19.92C80.1263 19.4613 80.2543 19.0507 80.5103 18.688C80.7663 18.3253 81.1396 18.0427 81.6303 17.84C82.1316 17.6267 82.7396 17.52 83.4543 17.52C83.9983 17.52 84.5423 17.5947 85.0863 17.744C85.6303 17.8827 86.0783 18.0693 86.4303 18.304L85.9343 19.216C85.5609 18.96 85.1609 18.7787 84.7343 18.672C84.3076 18.5547 83.8809 18.496 83.4543 18.496C82.6969 18.496 82.1369 18.6293 81.7743 18.896C81.4223 19.152 81.2463 19.4827 81.2463 19.888C81.2463 20.208 81.3423 20.4587 81.5343 20.64C81.7369 20.8213 81.9983 20.9653 82.3183 21.072C82.6489 21.168 83.0063 21.248 83.3903 21.312C83.7849 21.376 84.1743 21.456 84.5583 21.552C84.9529 21.6373 85.3103 21.76 85.6303 21.92C85.9609 22.0693 86.2223 22.288 86.4143 22.576C86.6169 22.8533 86.7183 23.2213 86.7183 23.68C86.7183 24.1707 86.5796 24.5973 86.3023 24.96C86.0356 25.312 85.6409 25.5893 85.1183 25.792C84.6063 25.984 83.9823 26.08 83.2463 26.08Z" fill="#00FFF5"/>
</svg>
