<svg width="24" height="24" viewBox="0 0 24 24" fill="none" xmlns="http://www.w3.org/2000/svg">
<mask id="mask0_8_51" style="mask-type:luminance" maskUnits="userSpaceOnUse" x="4" y="0" width="17" height="22">
<path fill-rule="evenodd" clip-rule="evenodd" d="M7.96859 1.53508C8.5777 1.07881 9.34579 0.916656 10.075 0.916656H15.2083C15.7146 0.916656 16.125 1.32706 16.125 1.83332C16.125 2.33958 15.7146 2.74999 15.2083 2.74999H12.9167V4.12499H14.2917C14.7979 4.12499 15.2083 4.5354 15.2083 5.04166V6.95902C15.5546 7.02305 15.8941 7.12335 16.221 7.25876C16.8327 7.51213 17.3885 7.8835 17.8567 8.35166C18.3248 8.81982 18.6962 9.37561 18.9495 9.98729C19.2029 10.599 19.3333 11.2546 19.3333 11.9167V12.3644C19.3333 12.8707 18.9229 13.2811 18.4167 13.2811C17.9104 13.2811 17.5 12.8707 17.5 12.3644V11.9167C17.5 11.4953 17.417 11.0781 17.2558 10.6889C17.0945 10.2996 16.8582 9.94594 16.5603 9.64802C16.2624 9.3501 15.9087 9.11378 15.5194 8.95254C15.1302 8.79131 14.713 8.70832 14.2917 8.70832H9.70832C8.85742 8.70832 8.04137 9.04634 7.43969 9.64802C6.83801 10.2497 6.49999 11.0658 6.49999 11.9167V16.0417C6.49999 16.8926 6.83801 17.7086 7.43969 18.3103C8.04137 18.912 8.85742 19.25 9.70832 19.25H12C12.5063 19.25 12.9167 19.6604 12.9167 20.1667C12.9167 20.6729 12.5063 21.0833 12 21.0833H9.70832C8.37119 21.0833 7.08882 20.5521 6.14333 19.6067C5.19783 18.6612 4.66666 17.3788 4.66666 16.0417V11.9167C4.66666 10.5795 5.19783 9.29716 6.14333 8.35166C6.86986 7.62513 7.7953 7.14323 8.79166 6.959V5.04166C8.79166 4.5354 9.20206 4.12499 9.70832 4.12499H11.0833V2.74999H10.075C9.58594 2.74999 9.25403 2.86283 9.06771 3.0024C8.91986 3.11315 8.79166 3.2894 8.79166 3.66666C8.79166 4.17292 8.38125 4.58332 7.87499 4.58332C7.36873 4.58332 6.95832 4.17292 6.95832 3.66666C6.95832 2.76058 7.321 2.02016 7.96859 1.53508ZM10.625 5.95832V6.87499H13.375V5.95832H10.625Z" fill="white"/>
<path d="M19.3333 18.2279C19.3333 19.2986 18.4098 20.1667 17.2708 20.1667C16.1319 20.1667 15.2083 19.2986 15.2083 18.2279C15.2083 17.1568 16.5558 15.125 17.2708 15.125C17.9858 15.125 19.3333 17.1568 19.3333 18.2279Z" fill="white"/>
<path fill-rule="evenodd" clip-rule="evenodd" d="M16.2802 17.6339C16.1628 17.9252 16.125 18.1278 16.125 18.2279C16.125 18.7397 16.5839 19.25 17.2708 19.25C17.9578 19.25 18.4167 18.7397 18.4167 18.2279C18.4167 18.1278 18.3788 17.9252 18.2614 17.6339C18.1497 17.3569 17.9895 17.0573 17.8066 16.7819C17.6216 16.5033 17.4329 16.2789 17.2765 16.136C17.2746 16.1343 17.2727 16.1325 17.2708 16.1308C17.2689 16.1325 17.267 16.1343 17.2651 16.136C17.1087 16.2789 16.9201 16.5033 16.7351 16.7819C16.5522 17.0573 16.3919 17.3569 16.2802 17.6339ZM17.4247 16.0146C17.4247 16.0147 17.4232 16.0155 17.4204 16.0167C17.4233 16.0152 17.4247 16.0145 17.4247 16.0146ZM17.1213 16.0167C17.1184 16.0155 17.1169 16.0147 17.1169 16.0146C17.1169 16.0145 17.1183 16.0152 17.1213 16.0167ZM16.5366 14.4104C16.7183 14.3109 16.9723 14.2083 17.2708 14.2083C17.5693 14.2083 17.8233 14.3109 18.005 14.4104C18.1935 14.5136 18.3642 14.6465 18.5129 14.7823C18.8103 15.0539 19.0926 15.4044 19.3338 15.7676C19.5772 16.1341 19.7985 16.5433 19.9618 16.9485C20.1194 17.3394 20.25 17.7924 20.25 18.2279C20.25 19.8574 18.8618 21.0833 17.2708 21.0833C15.6799 21.0833 14.2917 19.8574 14.2917 18.2279C14.2917 17.7924 14.4223 17.3394 14.5798 16.9485C14.7432 16.5433 14.9645 16.1341 15.2078 15.7676C15.4491 15.4044 15.7314 15.0539 16.0287 14.7823C16.1774 14.6465 16.3482 14.5136 16.5366 14.4104Z" fill="white"/>
</mask>
<g mask="url(#mask0_8_51)">
<path d="M1 0H23V22H1V0Z" fill="#B0B0B0"/>
</g>
</svg>
