<svg width="30" height="30" viewBox="0 0 30 30" fill="none" xmlns="http://www.w3.org/2000/svg">
<path d="M11.25 3.75C7.1125 3.75 3.925 7.1125 3.75 11.25V26.25H15V16.825C16.375 18.0625 18.125 18.75 20 18.75C24.1375 18.75 27.5 15.3875 27.5 11.25C27.5 7.1125 24.1375 3.75 20 3.75H11.25ZM11.25 6.25H14.425C13.1875 7.625 12.5 9.375 12.5 11.25V15H11.25V16.25H12.5V23.75H6.25V16.25H7.5V15H6.25V11.25C6.25 8.4875 8.4875 6.25 11.25 6.25ZM20 6.25C22.7625 6.25 25 8.4875 25 11.25C25 14.0125 22.7625 16.25 20 16.25C17.2375 16.25 15 14.0125 15 11.25C15 8.4875 17.2375 6.25 20 6.25ZM20 9.0625C18.7875 9.0625 17.8125 10.0375 17.8125 11.25C17.8125 12.4625 18.7875 13.4375 20 13.4375C21.2125 13.4375 22.1875 12.4625 22.1875 11.25C22.1875 10.0375 21.2125 9.0625 20 9.0625ZM8.75 15V16.25H10V15H8.75Z" fill="#00FFA3"/>
</svg>
