<svg width="30" height="30" viewBox="0 0 30 30" fill="none" xmlns="http://www.w3.org/2000/svg">
<path d="M3.75 23.75C3.39583 23.75 3.09917 23.63 2.86 23.39C2.62 23.1508 2.5 22.8542 2.5 22.5V16.25C2.5 15.6875 2.61458 15.1771 2.84375 14.7188C3.07292 14.2604 3.375 13.8542 3.75 13.5V10C3.75 8.95833 4.11458 8.07292 4.84375 7.34375C5.57292 6.61458 6.45833 6.25 7.5 6.25H12.5C12.9792 6.25 13.4271 6.33875 13.8438 6.51625C14.2604 6.69292 14.6458 6.9375 15 7.25C15.3542 6.9375 15.7396 6.69292 16.1562 6.51625C16.5729 6.33875 17.0208 6.25 17.5 6.25H22.5C23.5417 6.25 24.4271 6.61458 25.1562 7.34375C25.8854 8.07292 26.25 8.95833 26.25 10V13.5C26.625 13.8542 26.9271 14.2604 27.1562 14.7188C27.3854 15.1771 27.5 15.6875 27.5 16.25V22.5C27.5 22.8542 27.38 23.1508 27.14 23.39C26.9008 23.63 26.6042 23.75 26.25 23.75C25.8958 23.75 25.5992 23.63 25.36 23.39C25.12 23.1508 25 22.8542 25 22.5V21.25H5V22.5C5 22.8542 4.88042 23.1508 4.64125 23.39C4.40125 23.63 4.10417 23.75 3.75 23.75ZM16.25 12.5H23.75V10C23.75 9.64583 23.63 9.34875 23.39 9.10875C23.1508 8.86958 22.8542 8.75 22.5 8.75H17.5C17.1458 8.75 16.8492 8.86958 16.61 9.10875C16.37 9.34875 16.25 9.64583 16.25 10V12.5ZM6.25 12.5H13.75V10C13.75 9.64583 13.6304 9.34875 13.3913 9.10875C13.1513 8.86958 12.8542 8.75 12.5 8.75H7.5C7.14583 8.75 6.84875 8.86958 6.60875 9.10875C6.36958 9.34875 6.25 9.64583 6.25 10V12.5ZM5 18.75H25V16.25C25 15.8958 24.88 15.5987 24.64 15.3587C24.4008 15.1196 24.1042 15 23.75 15H6.25C5.89583 15 5.59875 15.1196 5.35875 15.3587C5.11958 15.5987 5 15.8958 5 16.25V18.75Z" fill="#FF05C8"/>
</svg>
