<svg width="24" height="24" viewBox="0 0 24 24" fill="none" xmlns="http://www.w3.org/2000/svg">
<mask id="mask0_352_1802" style="mask-type:luminance" maskUnits="userSpaceOnUse" x="4" y="0" width="17" height="22">
<path fill-rule="evenodd" clip-rule="evenodd" d="M7.96843 1.53505C8.57755 1.07878 9.34564 0.916626 10.0748 0.916626H15.2082C15.7144 0.916626 16.1248 1.32703 16.1248 1.83329C16.1248 2.33955 15.7144 2.74996 15.2082 2.74996H12.9165V4.12496H14.2915C14.7978 4.12496 15.2082 4.53536 15.2082 5.04163V6.95899C15.5545 7.02302 15.8939 7.12332 16.2209 7.25873C16.8325 7.5121 17.3883 7.88347 17.8565 8.35163C18.3247 8.81979 18.696 9.37558 18.9494 9.98726C19.2028 10.5989 19.3332 11.2545 19.3332 11.9166V12.3644C19.3332 12.8707 18.9228 13.2811 18.4165 13.2811C17.9102 13.2811 17.4998 12.8707 17.4998 12.3644V11.9166C17.4998 11.4953 17.4169 11.0781 17.2556 10.6888C17.0944 10.2996 16.8581 9.94591 16.5601 9.64799C16.2622 9.35007 15.9085 9.11375 15.5193 8.95251C15.13 8.79128 14.7128 8.70829 14.2915 8.70829H9.70817C8.85727 8.70829 8.04122 9.04631 7.43954 9.64799C6.83786 10.2497 6.49984 11.0657 6.49984 11.9166V16.0416C6.49984 16.8925 6.83786 17.7086 7.43954 18.3103C8.04122 18.9119 8.85727 19.25 9.70817 19.25H11.9998C12.5061 19.25 12.9165 19.6604 12.9165 20.1666C12.9165 20.6729 12.5061 21.0833 11.9998 21.0833H9.70817C8.37104 21.0833 7.08867 20.5521 6.14317 19.6066C5.19768 18.6611 4.6665 17.3788 4.6665 16.0416V11.9166C4.6665 10.5795 5.19768 9.29713 6.14317 8.35163C6.86971 7.6251 7.79515 7.1432 8.7915 6.95897V5.04163C8.7915 4.53536 9.20191 4.12496 9.70817 4.12496H11.0832V2.74996H10.0748C9.58579 2.74996 9.25388 2.8628 9.06755 3.00237C8.9197 3.11312 8.7915 3.28937 8.7915 3.66663C8.7915 4.17289 8.3811 4.58329 7.87484 4.58329C7.36858 4.58329 6.95817 4.17289 6.95817 3.66663C6.95817 2.76055 7.32085 2.02013 7.96843 1.53505ZM10.6248 5.95829V6.87496H13.3748V5.95829H10.6248Z" fill="white"/>
<path d="M19.333 18.2279C19.333 19.2986 18.4095 20.1667 17.2705 20.1667C16.1315 20.1667 15.208 19.2986 15.208 18.2279C15.208 17.1568 16.5555 15.125 17.2705 15.125C17.9855 15.125 19.333 17.1568 19.333 18.2279Z" fill="white"/>
<path fill-rule="evenodd" clip-rule="evenodd" d="M16.2801 17.6338C16.1627 17.9251 16.1248 18.1278 16.1248 18.2278C16.1248 18.7396 16.5837 19.2499 17.2707 19.2499C17.9576 19.2499 18.4165 18.7396 18.4165 18.2278C18.4165 18.1278 18.3787 17.9251 18.2613 17.6338C18.1496 17.3568 17.9893 17.0572 17.8064 16.7818C17.6214 16.5032 17.4328 16.2788 17.2764 16.136C17.2745 16.1342 17.2726 16.1325 17.2707 16.1308C17.2688 16.1325 17.2669 16.1342 17.265 16.136C17.1086 16.2788 16.9199 16.5032 16.7349 16.7818C16.552 17.0572 16.3917 17.3568 16.2801 17.6338ZM17.4246 16.0146C17.4245 16.0146 17.4231 16.0154 17.4202 16.0166C17.4232 16.0151 17.4246 16.0145 17.4246 16.0146ZM17.1211 16.0166C17.1183 16.0154 17.1168 16.0146 17.1168 16.0146C17.1168 16.0145 17.1182 16.0151 17.1211 16.0166ZM16.5365 14.4103C16.7181 14.3108 16.9722 14.2083 17.2707 14.2083C17.5692 14.2083 17.8232 14.3108 18.0049 14.4103C18.1933 14.5135 18.3641 14.6465 18.5128 14.7823C18.8101 15.0539 19.0924 15.4043 19.3337 15.7676C19.577 16.134 19.7983 16.5432 19.9616 16.9484C20.1192 17.3394 20.2498 17.7924 20.2498 18.2278C20.2498 19.8574 18.8616 21.0833 17.2707 21.0833C15.6797 21.0833 14.2915 19.8574 14.2915 18.2278C14.2915 17.7924 14.4221 17.3394 14.5797 16.9484C14.743 16.5432 14.9643 16.134 15.2077 15.7676C15.4489 15.4043 15.7312 15.0539 16.0286 14.7823C16.1772 14.6465 16.348 14.5135 16.5365 14.4103Z" fill="white"/>
</mask>
<g mask="url(#mask0_352_1802)">
<path d="M1 0H23V22H1V0Z" fill="#00FFF5"/>
</g>
</svg>
