<svg width="24" height="24" viewBox="0 0 24 24" fill="none" xmlns="http://www.w3.org/2000/svg">
<path d="M22.3176 5.28H1.69007C1.02671 5.28 0.483826 5.88336 0.483826 6.48C0.483826 7.07664 1.02671 7.67952 1.69007 7.67952H1.98143V10.0795H22.0555V7.67952H22.3176C22.9814 7.67952 23.5238 7.07664 23.5238 6.48C23.5238 5.88336 22.9814 5.28 22.3176 5.28ZM12.0038 8.8896C11.6707 8.8896 11.4009 8.61168 11.4009 8.26944C11.4009 7.9272 11.6707 7.64928 12.0038 7.64928C12.3374 7.64928 12.6067 7.9272 12.6067 8.26944C12.6067 8.61168 12.3374 8.8896 12.0038 8.8896ZM1.98143 14.879H22.0555V11.04H1.98143V14.879ZM12.0038 12.2995C12.3374 12.2995 12.6067 12.577 12.6067 12.9192C12.6067 13.2619 12.3374 13.5394 12.0038 13.5394C11.6707 13.5394 11.4009 13.2619 11.4009 12.9192C11.4005 12.577 11.6707 12.2995 12.0038 12.2995ZM1.98143 18.1896V20.9803C1.98143 21.3211 2.02415 21.6005 2.35583 21.6005H4.76735C5.09903 21.6005 5.24927 21.3211 5.24927 20.9803V19.1995H18.7877V20.9803C18.7877 21.3211 18.9086 21.6005 19.2398 21.6005H21.6518C21.9825 21.6005 22.055 21.3211 22.055 20.9803V15.84H1.98143V18.1896ZM12.0038 16.9498C12.3374 16.9498 12.6067 17.2277 12.6067 17.5694C12.6067 17.9126 12.3374 18.1891 12.0038 18.1891C11.6707 18.1891 11.4009 17.9126 11.4009 17.5694C11.4005 17.2282 11.6707 16.9498 12.0038 16.9498Z" fill="#B0B0B0"/>
</svg>
