<svg width="14" height="14" viewBox="0 0 14 14" fill="none" xmlns="http://www.w3.org/2000/svg">
<path d="M8.75002 12.8333L3.50002 12.8333C2.85835 12.8333 2.33335 12.3083 2.33335 11.6667L2.33335 2.33333C2.33335 1.69166 2.85835 1.16666 3.50002 1.16666L8.75002 1.16666C9.39169 1.16666 9.91669 1.69166 9.91669 2.33333L9.91669 3.49999L8.75002 3.49999L8.75002 2.33333L3.50002 2.33333L3.50002 11.6667L8.75002 11.6667L8.75002 10.5L9.91669 10.5L9.91669 11.6667C9.91669 12.3083 9.39169 12.8333 8.75002 12.8333Z" fill="#FFE605"/>
<path d="M8.11417 4.90584L7.29167 4.08334L4.375 7L7.29167 9.91667L8.11417 9.09417L6.60917 7.58334L12.25 7.58334L12.25 6.41667L6.60917 6.41667L8.11417 4.90584Z" fill="#FFE605"/>
</svg>
