<svg width="30" height="30" viewBox="0 0 30 30" fill="none" xmlns="http://www.w3.org/2000/svg">
<path d="M5.335 25H5C4.33696 25 3.70107 24.7366 3.23223 24.2678C2.76339 23.7989 2.5 23.163 2.5 22.5V7.5C2.5 6.83696 2.76339 6.20107 3.23223 5.73223C3.70107 5.26339 4.33696 5 5 5H25C25.663 5 26.2989 5.26339 26.7678 5.73223C27.2366 6.20107 27.5 6.83696 27.5 7.5V22.5C27.5 23.163 27.2366 23.7989 26.7678 24.2678C26.2989 24.7366 25.663 25 25 25H24.665C24.4456 25.38 24.13 25.6956 23.7499 25.915C23.3699 26.1344 22.9388 26.2499 22.5 26.2499C22.0612 26.2499 21.6301 26.1344 21.2501 25.915C20.87 25.6956 20.5544 25.38 20.335 25H9.665C9.44557 25.38 9.12998 25.6956 8.74995 25.915C8.36991 26.1344 7.93882 26.2499 7.5 26.2499C7.06118 26.2499 6.63009 26.1344 6.25005 25.915C5.87002 25.6956 5.55443 25.38 5.335 25ZM5 7.5V22.5H25V7.5H5ZM7.5 15H22.5V20H7.5V15ZM7.5 10H13.75V12.5H7.5V10ZM12.5 16.25V17.5H17.5V16.25H12.5ZM17.5 12.5C17.1685 12.5 16.8505 12.3683 16.6161 12.1339C16.3817 11.8995 16.25 11.5815 16.25 11.25C16.25 10.9185 16.3817 10.6005 16.6161 10.3661C16.8505 10.1317 17.1685 10 17.5 10C17.8315 10 18.1495 10.1317 18.3839 10.3661C18.6183 10.6005 18.75 10.9185 18.75 11.25C18.75 11.5815 18.6183 11.8995 18.3839 12.1339C18.1495 12.3683 17.8315 12.5 17.5 12.5ZM21.25 12.5C20.9185 12.5 20.6005 12.3683 20.3661 12.1339C20.1317 11.8995 20 11.5815 20 11.25C20 10.9185 20.1317 10.6005 20.3661 10.3661C20.6005 10.1317 20.9185 10 21.25 10C21.5815 10 21.8995 10.1317 22.1339 10.3661C22.3683 10.6005 22.5 10.9185 22.5 11.25C22.5 11.5815 22.3683 11.8995 22.1339 12.1339C21.8995 12.3683 21.5815 12.5 21.25 12.5Z" fill="#FF1010"/>
</svg>
